<svg xmlns="http://www.w3.org/2000/svg" viewBox="0 0 1920 1080">
  <defs>
    <linearGradient id="bg" x1="0%" y1="0%" x2="100%" y2="100%">
      <stop offset="0%" style="stop-color:#050816"/>
      <stop offset="45%" style="stop-color:#0f0a2e"/>
      <stop offset="100%" style="stop-color:#050816"/>
    </linearGradient>
    <radialGradient id="glow1" cx="30%" cy="40%" r="40%">
      <stop offset="0%" style="stop-color:rgba(139,92,246,0.18)"/>
      <stop offset="100%" style="stop-color:rgba(139,92,246,0)"/>
    </radialGradient>
    <radialGradient id="glow2" cx="70%" cy="60%" r="35%">
      <stop offset="0%" style="stop-color:rgba(6,182,212,0.14)"/>
      <stop offset="100%" style="stop-color:rgba(6,182,212,0)"/>
    </radialGradient>
  </defs>
  <rect width="1920" height="1080" fill="url(#bg)"/>
  <rect width="1920" height="1080" fill="url(#glow1)"/>
  <rect width="1920" height="1080" fill="url(#glow2)"/>
  <!-- subtle grid lines -->
  <g stroke="rgba(139,92,246,0.06)" stroke-width="1">
    <line x1="0" y1="216" x2="1920" y2="216"/>
    <line x1="0" y1="432" x2="1920" y2="432"/>
    <line x1="0" y1="648" x2="1920" y2="648"/>
    <line x1="0" y1="864" x2="1920" y2="864"/>
    <line x1="384" y1="0" x2="384" y2="1080"/>
    <line x1="768" y1="0" x2="768" y2="1080"/>
    <line x1="1152" y1="0" x2="1152" y2="1080"/>
    <line x1="1536" y1="0" x2="1536" y2="1080"/>
  </g>
  <!-- particles -->
  <circle cx="240" cy="180" r="2" fill="rgba(6,182,212,0.5)"/>
  <circle cx="580" cy="320" r="1.5" fill="rgba(139,92,246,0.6)"/>
  <circle cx="920" cy="140" r="2.5" fill="rgba(6,182,212,0.4)"/>
  <circle cx="1260" cy="280" r="1.5" fill="rgba(251,191,36,0.5)"/>
  <circle cx="1600" cy="180" r="2" fill="rgba(139,92,246,0.5)"/>
  <circle cx="400" cy="540" r="1.5" fill="rgba(6,182,212,0.4)"/>
  <circle cx="760" cy="680" r="2" fill="rgba(139,92,246,0.4)"/>
  <circle cx="1100" cy="500" r="1.5" fill="rgba(251,191,36,0.4)"/>
  <circle cx="1440" cy="620" r="2" fill="rgba(6,182,212,0.5)"/>
  <circle cx="1760" cy="480" r="1.5" fill="rgba(139,92,246,0.6)"/>
  <circle cx="320" cy="860" r="2" fill="rgba(139,92,246,0.4)"/>
  <circle cx="680" cy="920" r="1.5" fill="rgba(6,182,212,0.5)"/>
  <circle cx="1020" cy="800" r="2.5" fill="rgba(251,191,36,0.3)"/>
  <circle cx="1380" cy="940" r="1.5" fill="rgba(139,92,246,0.5)"/>
  <circle cx="1720" cy="840" r="2" fill="rgba(6,182,212,0.4)"/>
</svg>
